<?xml version="1.0" encoding="utf-8"?>
<!-- Generator: Adobe Illustrator 16.0.0, SVG Export Plug-In . SVG Version: 6.00 Build 0)  -->
<!DOCTYPE svg PUBLIC "-//W3C//DTD SVG 1.1//EN" "http://www.w3.org/Graphics/SVG/1.1/DTD/svg11.dtd">
<svg version="1.1" id="Layer_1" xmlns="http://www.w3.org/2000/svg" xmlns:xlink="http://www.w3.org/1999/xlink" x="0px" y="0px"
	 width="114.333px" height="90.333px" viewBox="128 15.167 114.333 90.333" enable-background="new 128 15.167 114.333 90.333"
	 xml:space="preserve">
<g>
	<path fill="none" stroke="#FFFFFF" stroke-width="4" stroke-linecap="round" stroke-linejoin="round" d="M185.166,22.721
		c-9.903-0.034-17.958,7.967-17.992,17.87c-0.002,0.731,0.04,1.462,0.127,2.188c1.276,13.088,14.494,22.25,17.865,38.839
		c3.271-16.589,16.589-25.62,17.864-38.839c1.176-9.833-5.844-18.756-15.677-19.931C186.628,22.761,185.896,22.719,185.166,22.721z
		 M185.166,48.897c-4.518,0-8.181-3.662-8.181-8.18s3.663-8.18,8.181-8.18c4.517,0,8.18,3.663,8.18,8.18
		S189.683,48.897,185.166,48.897z"/>
	<path fill="none" stroke="#FFFFFF" stroke-width="3" stroke-linecap="round" stroke-linejoin="round" d="M192.82,76.65
		c13.977,0.808,24.348,3.771,24.348,7.304c0,4.152-14.328,7.519-32.001,7.519c-17.675,0-32.002-3.366-32.002-7.519
		c0-3.555,10.504-6.535,24.621-7.317"/>
	<path fill="none" stroke="#FFFFFF" stroke-width="3" stroke-linecap="round" stroke-linejoin="round" d="M195.744,70.28
		c22.393,1.363,39.172,6.968,39.172,13.674c0,7.728-22.275,13.992-49.749,13.992c-27.477,0-49.75-6.265-49.75-13.992
		c0-6.713,16.816-12.324,39.251-13.68"/>
</g>
</svg>
