<?xml version="1.0" encoding="utf-8"?>
<!-- Generator: Adobe Illustrator 16.0.0, SVG Export Plug-In . SVG Version: 6.00 Build 0)  -->
<!DOCTYPE svg PUBLIC "-//W3C//DTD SVG 1.1//EN" "http://www.w3.org/Graphics/SVG/1.1/DTD/svg11.dtd">
<svg version="1.1" id="Layer_1" xmlns="http://www.w3.org/2000/svg" xmlns:xlink="http://www.w3.org/1999/xlink" x="0px" y="0px"
	 width="137px" height="131.5px" viewBox="116.5 -4.5 137 131.5" enable-background="new 116.5 -4.5 137 131.5"
	 xml:space="preserve">
<title></title>
<g id="Google_Maps">
	<g id="_Group_">
		
			<line id="_Path_" fill="none" stroke="#FFFFFF" stroke-width="6" stroke-linecap="round" stroke-linejoin="round" x1="140.002" y1="118.75" x2="198.752" y2="60"/>
		
			<line id="_Path_2" fill="none" stroke="#FFFFFF" stroke-width="6" stroke-linecap="round" stroke-linejoin="round" x1="190.002" y1="43.75" x2="127.502" y2="106.25"/>
		<path id="_Compound_Path_" fill="none" stroke="#FFFFFF" stroke-width="6" stroke-linecap="round" stroke-linejoin="round" d="
			M215.002,3.75c-15.133-0.052-27.441,12.174-27.493,27.307c-0.004,1.117,0.061,2.234,0.193,3.343c1.95,20,22.149,34,27.3,59.35
			c5-25.35,25.35-39.15,27.3-59.35c1.796-15.026-8.931-28.662-23.956-30.457C217.236,3.811,216.119,3.746,215.002,3.75z
			 M215.002,43.75c-6.903,0-12.5-5.597-12.5-12.5s5.597-12.5,12.5-12.5s12.5,5.597,12.5,12.5S221.905,43.75,215.002,43.75z"/>
		
			<line id="_Path_3" fill="none" stroke="#FFFFFF" stroke-width="6" stroke-linecap="round" stroke-linejoin="round" x1="232.502" y1="106.25" x2="216.002" y2="89.75"/>
		
			<line id="_Path_4" fill="none" stroke="#FFFFFF" stroke-width="6" stroke-linecap="round" stroke-linejoin="round" x1="180.002" y1="78.75" x2="220.002" y2="118.75"/>
		
			<line id="_Path_5" fill="none" stroke="#FFFFFF" stroke-width="6" stroke-linecap="round" stroke-linejoin="round" x1="213.152" y1="86.9" x2="192.502" y2="66.25"/>
		<path id="_Path_6" fill="none" stroke="#FFFFFF" stroke-width="6" stroke-linecap="round" stroke-linejoin="round" d="
			M193.802,13.75h-58.8c-4.142,0-7.5,3.358-7.5,7.5v90c0,4.143,3.358,7.5,7.5,7.5h90c4.143,0,7.5-3.357,7.5-7.5V58"/>
		<path id="_Path_7" fill="none" stroke="#FFFFFF" stroke-width="6" stroke-linecap="round" stroke-linejoin="round" d="
			M160.002,28.75c-5.523-4.142-13.358-3.023-17.5,2.5s-3.023,13.358,2.5,17.5s13.358,3.023,17.5-2.5c1.623-2.164,2.5-4.795,2.5-7.5
			h-10"/>
	</g>
</g>
</svg>
