<?xml version="1.0" encoding="utf-8"?>
<!-- Generator: Adobe Illustrator 16.0.0, SVG Export Plug-In . SVG Version: 6.00 Build 0)  -->
<!DOCTYPE svg PUBLIC "-//W3C//DTD SVG 1.1//EN" "http://www.w3.org/Graphics/SVG/1.1/DTD/svg11.dtd">
<svg version="1.1" id="Layer_1" xmlns:sketch="http://www.bohemiancoding.com/sketch/ns"
	 xmlns="http://www.w3.org/2000/svg" xmlns:xlink="http://www.w3.org/1999/xlink" x="0px" y="0px" width="156px" height="109px"
	 viewBox="110 3.5 156 109" enable-background="new 110 3.5 156 109" xml:space="preserve">
<title>logo_standard</title>
<desc>Created with Sketch.</desc>
<g id="Page-1" sketch:type="MSPage">
	<g id="logos" transform="translate(-112.000000, -79.000000)" sketch:type="MSArtboardGroup">
		<path id="logo_standard" sketch:type="MSShapeGroup" fill="#FFFFFF" d="M237.143,94.055h19.111v51.239
			c0,8.127,3.683,12.953,6.667,14.984c-3.111,2.73-12.571,5.143-19.683-0.698c-4.19-3.429-6.095-9.144-6.095-14.477V94.055z
			 M356.445,136.659v-5.397h5.84v-18.857h-6.412c-2.477-11.365-12.572-19.81-24.635-19.81c-13.904,0-25.207,11.301-25.207,25.206v44
			c3.936,0.571,8.699-0.063,12.699-3.429c4.189-3.428,6.096-9.143,6.096-14.476v-1.651h9.523v-18.857h-9.523v-5.714l0,0
			c0-3.556,2.857-6.413,6.412-6.413s6.412,2.857,6.412,6.413v18.92c0,13.906,11.303,25.207,25.207,25.207v-18.793
			C359.303,143.009,356.445,140.151,356.445,136.659z M284.19,112.341v27.747c0,1.587-1.333,2.856-2.92,2.856
			c-1.588,0-2.921-1.27-2.921-2.856v-27.747h-18.857v32.572c0,5.841,1.968,13.27,11.047,15.683
			c9.08,2.413,14.286-2.604,14.286-2.604c-0.508,3.301-3.555,5.714-8.571,6.223c-3.81,0.38-8.635-0.889-11.048-1.905v17.271
			c6.159,1.841,12.635,2.412,19.048,1.143c11.556-2.223,18.857-11.873,18.857-24.762v-43.747H284.19V112.341z"/>
	</g>
</g>
</svg>
