<?xml version="1.0" encoding="utf-8"?>
<!-- Generator: Adobe Illustrator 16.0.0, SVG Export Plug-In . SVG Version: 6.00 Build 0)  -->
<!DOCTYPE svg PUBLIC "-//W3C//DTD SVG 1.1//EN" "http://www.w3.org/Graphics/SVG/1.1/DTD/svg11.dtd">
<svg version="1.1" id="Layer_1" xmlns="http://www.w3.org/2000/svg" xmlns:xlink="http://www.w3.org/1999/xlink" x="0px" y="0px"
	 width="406px" height="192px" viewBox="0 0 406 192" enable-background="new 0 0 406 192" xml:space="preserve">
<g id="Layer_2" display="none">
</g>
<g>
	<g>
		<g>
			<g>
				<g>
					<path fill="#27646A" stroke="#F0F8F8" stroke-width="3.5726" stroke-miterlimit="10" d="M78.754,123.288V39.752
						c0-2.013,1.006-3.546,3.021-4.597c2.013-1.051,4.42-1.577,7.223-1.577s5.207,0.526,7.224,1.577
						c2.014,1.051,3.022,2.584,3.022,4.597v71.977h29.944c1.841,0,3.283,0.876,4.334,2.627c1.05,1.752,1.577,3.854,1.577,6.305
						c0,2.451-0.527,4.554-1.577,6.305c-1.051,1.752-2.493,2.625-4.334,2.625H87.683c-2.453,0-4.553-0.544-6.305-1.641
						C79.627,126.857,78.754,125.304,78.754,123.288z"/>
					<path fill="#27646A" stroke="#F0F8F8" stroke-width="3.5726" stroke-miterlimit="10" d="M126.431,149.027
						c0-5.865,1.661-8.795,4.99-8.795c12.434,0,18.651-5.543,18.651-16.635l-22.987-45.226c-0.438-0.867-0.654-1.735-0.654-2.601
						c0-2.427,1.576-4.634,4.728-6.627c3.153-1.992,6.173-2.991,9.063-2.991c2.888,0,4.771,1.084,5.647,3.249l14.84,35.222
						l10.902-35.222c0.874-2.165,2.626-3.249,5.255-3.249c2.712,0,5.731,1.018,9.062,3.055c3.325,2.035,4.991,4.355,4.991,6.953
						c0,0.879-0.177,1.624-0.526,2.235l-18.649,46.556c-0.441,1.229-1.229,3.289-2.365,6.184l-2.365,6.05
						c-0.439,1.313-1.246,3.134-2.428,5.455c-1.183,2.326-2.279,4.054-3.283,5.199c-1.011,1.138-2.389,2.497-4.139,4.076
						c-1.754,1.576-3.592,2.717-5.518,3.42c-1.927,0.7-4.246,1.335-6.96,1.909c-2.716,0.566-5.693,0.853-8.932,0.853
						c-3.067,0-5.384-0.598-6.962-1.789C127.219,155.118,126.431,152.689,126.431,149.027z"/>
					<path fill="#27646A" stroke="#F0F8F8" stroke-width="3.5726" stroke-miterlimit="10" d="M267.749,123.288V37.52
						c0-1.838,0.942-3.326,2.825-4.466c1.881-1.138,4.27-1.708,7.16-1.708c2.974,0,5.449,0.57,7.419,1.708
						c1.97,1.14,2.954,2.627,2.954,4.466v51.489l21.804-21.148c1.051-1.05,2.366-1.576,3.94-1.576c2.188,0,4.377,1.073,6.565,3.219
						c2.189,2.146,3.285,4.312,3.285,6.501c0,1.313-0.524,2.495-1.578,3.547l-13.92,12.873l17.993,25.216
						c0.702,1.139,1.049,2.19,1.049,3.152c0,2.278-1.312,4.532-3.938,6.765c-2.625,2.231-5.213,3.35-7.749,3.35
						c-2.102,0-3.724-0.833-4.861-2.498l-15.892-23.511l-6.699,6.175v12.214c0,1.575-1.03,3.022-3.088,4.334
						c-2.057,1.312-4.487,1.97-7.285,1.97c-2.806,0-5.169-0.633-7.096-1.904C268.714,126.421,267.749,124.951,267.749,123.288z"/>
				</g>
				<g>
					<g>
						<path fill="#F0F8F8" stroke="#27646A" stroke-width="3.5726" stroke-linecap="round" stroke-miterlimit="10" d="
							M256.255,93.816v29.949c0,1.574-1.003,3.018-3.02,4.333c-2.015,1.314-4.421,1.97-7.224,1.97c-2.629,0-4.969-0.655-7.028-1.966
							c-2.056-1.309-3.086-2.75-3.086-4.321V93.918c0-2.531-0.963-4.802-2.89-6.808c-1.926-2.009-4.158-3.013-6.697-3.013
							c-2.54,0-4.748,1.004-6.633,3.013c-1.883,2.006-2.825,4.277-2.825,6.808v29.994c0,1.661-1.028,3.1-3.087,4.322
							c-2.056,1.222-4.442,1.833-7.158,1.833c-2.891,0-5.295-0.613-7.223-1.837c-1.924-1.227-2.889-2.674-2.889-4.335V93.816
							c0-7.355,2.952-13.791,8.863-19.307c5.911-5.517,12.896-8.275,20.951-8.275c8.143,0,15.168,2.759,21.081,8.275
							C253.3,80.025,256.255,86.461,256.255,93.816z"/>
						<path fill="#27646A" d="M246.012,131.094c-2.812,0-5.362-0.715-7.579-2.126c-2.362-1.504-3.562-3.25-3.562-5.187V93.918
							c0-2.279-0.851-4.273-2.604-6.096c-1.738-1.817-3.688-2.699-5.957-2.699c-2.264,0-4.187,0.88-5.885,2.688
							c-1.713,1.826-2.547,3.827-2.547,6.107v29.994c0,2.037-1.206,3.788-3.589,5.203c-2.207,1.313-4.791,1.979-7.683,1.979
							c-3.072,0-5.688-0.671-7.774-1.998c-2.231-1.423-3.364-3.175-3.364-5.201V93.816c0-7.617,3.093-14.365,9.191-20.057
							c6.08-5.674,13.362-8.551,21.65-8.551c8.373,0,15.701,2.877,21.78,8.551c6.099,5.692,9.19,12.44,9.19,20.057v29.949
							c0,1.938-1.172,3.683-3.486,5.192C251.622,130.375,249.003,131.094,246.012,131.094z M226.311,83.071
							c2.819,0,5.32,1.121,7.436,3.33c2.11,2.192,3.178,4.724,3.178,7.518v29.863c0,1.19,0.88,2.353,2.611,3.455
							c1.884,1.198,4.061,1.806,6.477,1.806c2.586,0,4.828-0.607,6.662-1.803c1.695-1.105,2.555-2.276,2.555-3.473V93.816
							c0-7.025-2.87-13.269-8.539-18.557c-5.688-5.308-12.542-8-20.379-8c-7.751,0-14.562,2.692-20.248,8
							c-5.668,5.288-8.541,11.532-8.541,18.557v30.079c0,1.298,0.789,2.433,2.413,3.469c1.75,1.112,3.997,1.677,6.673,1.677
							c2.518,0,4.75-0.569,6.633-1.689c1.74-1.035,2.586-2.161,2.586-3.44V93.918c0-2.79,1.044-5.315,3.103-7.511
							C221.004,84.194,223.49,83.071,226.311,83.071z"/>
					</g>
				</g>
			</g>
			<circle fill="#1EBAD6" stroke="#F0F8F8" stroke-width="3.5726" stroke-miterlimit="10" cx="206.692" cy="150.457" r="10.196"/>
			<circle fill="#E60E81" stroke="#F0F8F8" stroke-width="3.5726" stroke-miterlimit="10" cx="246.059" cy="150.457" r="10.196"/>
		</g>
	</g>
</g>
</svg>
