<?xml version="1.0" encoding="utf-8"?>
<!-- Generator: Adobe Illustrator 16.0.0, SVG Export Plug-In . SVG Version: 6.00 Build 0)  -->
<!DOCTYPE svg PUBLIC "-//W3C//DTD SVG 1.1//EN" "http://www.w3.org/Graphics/SVG/1.1/DTD/svg11.dtd">
<svg version="1.1" id="Layer_1" xmlns="http://www.w3.org/2000/svg" xmlns:xlink="http://www.w3.org/1999/xlink" x="0px" y="0px"
	 width="292px" height="61px" viewBox="0 0 292 61" enable-background="new 0 0 292 61" xml:space="preserve">
<title>Group</title>
<desc>Created with Sketch.</desc>
<g id="Page-1">
	<g id="Group">
		<path id="Fill-1" fill="#FFFFFF" d="M65.6,7.181v26.966c0,9.006-3.986,12.744-13.335,12.744c-9.35,0-13.336-3.738-13.336-12.744V6
			h-9.005c-0.787,0-1.181,0.395-1.181,1.181V34.59c0,15.06,9.596,20.324,23.522,20.324c13.926,0,23.521-5.265,23.521-20.324V6H66.78
			C65.993,6,65.6,6.395,65.6,7.181"/>
		<path id="Fill-2" fill="#FFFFFF" d="M196.143,13.825c0.738,0,1.082-0.246,1.328-0.788l2.609-6.446c0.148-0.393,0-0.59-0.395-0.59
			h-36.267c-3.396,0-4.674,1.034-4.674,3.346v41.875c0,1.971,0.982,2.855,3.592,2.855h33.806c0.738,0,1.082-0.247,1.328-0.786
			l2.609-6.447c0.148-0.395,0-0.591-0.395-0.591h-30.951v-8.514c0-2.952,1.623-4.282,6.002-4.282h13.436
			c0.737,0,1.081-0.244,1.327-0.785l2.511-6.201c0.146-0.395,0-0.591-0.395-0.591h-22.881V13.825H196.143"/>
		<path id="Fill-3" fill="#FFFFFF" d="M122.851,46.352h-17.77v-8.809c0-2.953,1.624-4.281,6.004-4.281h11.766
			c5.659,0,7.233,2.165,7.233,6.595C130.084,44.284,128.509,46.352,122.851,46.352z M105.081,13.726h15.899
			c5.314,0,6.791,2.002,6.791,6.151c0,4.15-1.477,6.151-6.791,6.151h-15.899V13.726z M132.298,28.734
			c3.937-2.067,5.561-5.954,5.561-10.53C137.859,7.575,129.198,6,120.243,6H99.771c-3.396,0-4.674,1.034-4.674,3.346v41.875
			c0,1.971,0.983,2.855,3.592,2.855h25.195c9.498,0,16.288-3.691,16.288-13.286C140.171,35.033,137.711,30.162,132.298,28.734
			L132.298,28.734z"/>
		<path id="Fill-4" fill="#FFFFFF" d="M244.144,28.291h-16.73V13.727h16.73c6.249,0,7.627,2.411,7.627,7.282
			C251.771,25.93,250.393,28.291,244.144,28.291z M262.94,53.24l-10.776-18.502c5.364-1.377,9.694-4.92,9.694-13.926
			C261.858,9.15,254.625,6,242.667,6h-20.568c-3.396,0-4.675,1.034-4.675,3.346v43.549c0,0.787,0.394,1.182,1.181,1.182h8.809
			V40.053c0-2.952,1.623-4.281,6.003-4.281h8.857l9.743,17.52c0.295,0.49,0.591,0.786,1.329,0.786h9.152
			C263.139,54.077,263.139,53.535,262.94,53.24L262.94,53.24z"/>
	</g>
</g>
</svg>
